<?xml version="1.0" standalone="no"?>
<!DOCTYPE svg PUBLIC "-//W3C//DTD SVG 20010904//EN"
 "http://www.w3.org/TR/2001/REC-SVG-20010904/DTD/svg10.dtd">
<svg version="1.0" xmlns="http://www.w3.org/2000/svg"
 width="700.000000pt" height="700.000000pt" viewBox="0 0 700.000000 700.000000"
 preserveAspectRatio="xMidYMid meet">
<metadata>
Created by potrace 1.14, written by Peter Selinger 2001-2017
</metadata>
<g transform="translate(0.000000,700.000000) scale(0.100000,-0.100000)"
fill="#000000" stroke="none">
<path d="M4422 6062 c-67 -100 -84 -135 -114 -232 -20 -63 -40 -133 -44 -155
-4 -22 -8 -42 -9 -45 -1 -3 -5 -30 -10 -60 -5 -30 -9 -57 -10 -60 -1 -6 -15
-99 -21 -145 -6 -47 -14 -125 -19 -180 -6 -68 -16 -162 -20 -205 -2 -19 -7
-63 -10 -97 -3 -34 -8 -70 -10 -81 -2 -10 -6 -43 -10 -73 -16 -138 -81 -426
-127 -559 -70 -205 -170 -364 -267 -424 -33 -21 -230 -89 -291 -101 -14 -2
-65 -14 -113 -25 -48 -11 -104 -23 -124 -26 -58 -9 -206 -60 -275 -95 -233
-116 -424 -308 -545 -545 -60 -117 -115 -281 -128 -377 -3 -18 -7 -43 -11 -57
-3 -14 -7 -128 -9 -255 -3 -242 -7 -290 -31 -357 -38 -109 -95 -105 -160 11
-21 39 -62 159 -78 231 -32 152 -24 388 20 562 102 404 348 753 669 948 85 52
239 129 320 159 33 13 69 27 80 32 27 11 93 29 130 35 137 23 278 77 349 136
107 88 175 245 204 468 9 73 9 312 -1 375 -73 481 -398 908 -857 1127 -117 56
-264 105 -370 124 -14 3 -32 7 -40 9 -49 14 -158 20 -330 19 -183 0 -201 -2
-285 -28 -95 -29 -313 -129 -418 -192 -361 -217 -634 -597 -717 -997 -17 -84
-22 -112 -36 -217 -3 -19 -7 -46 -9 -60 -2 -14 -7 -44 -10 -67 -7 -51 -18 -53
149 33 132 68 247 109 343 122 307 42 573 -100 702 -373 113 -239 113 -379 0
-556 -50 -78 -228 -255 -370 -368 -57 -46 -122 -97 -144 -114 -67 -54 -117
-100 -165 -151 -25 -27 -53 -58 -63 -68 -72 -75 -210 -334 -231 -433 -41 -190
-44 -210 -44 -348 0 -189 34 -350 111 -527 95 -220 248 -415 428 -544 35 -25
69 -50 74 -54 26 -21 152 -85 221 -112 202 -80 390 -106 634 -85 128 11 327
12 395 3 65 -9 154 -33 235 -63 114 -42 237 -67 405 -80 39 -3 93 -8 120 -11
84 -9 1203 -12 1313 -4 126 10 195 26 217 50 88 97 -84 390 -292 498 -48 25
-73 43 -75 57 -5 30 15 89 71 212 49 108 103 278 116 365 4 24 8 45 10 48 2 3
6 30 10 60 3 30 8 73 10 95 3 22 7 78 10 124 20 320 63 413 296 642 114 112
156 132 274 135 50 1 115 -2 145 -7 160 -27 303 -28 349 -4 38 19 72 84 64
124 -27 152 -265 352 -454 382 -142 23 -170 31 -211 63 -97 73 -150 188 -154
334 -2 46 2 94 8 107 16 36 68 55 160 60 46 3 130 7 188 10 106 5 163 12 190
21 8 3 33 8 55 11 111 15 276 87 337 146 l40 39 -6 72 c-8 95 -12 116 -42 194
-114 304 -414 588 -735 697 -39 14 -122 34 -183 45 -152 29 -239 63 -288 113
-23 24 -61 86 -91 147 -65 135 -141 259 -238 388 l-77 103 -80 -119z"/>
</g>
</svg>
